<?xml version="1.0" encoding="UTF-8" standalone="no"?>
<!-- Created with Inkscape (http://www.inkscape.org/) -->

<svg
   width="240.28725"
   height="40.402214"
   viewBox="0 0 63.576 10.689752"
   version="1.1"
   id="svg1"
   inkscape:version="1.3.2 (091e20e, 2023-11-25, custom)"
   sodipodi:docname="path_logo.svg"
   inkscape:export-filename="drawing.png"
   inkscape:export-xdpi="96"
   inkscape:export-ydpi="96"
   xmlns:inkscape="http://www.inkscape.org/namespaces/inkscape"
   xmlns:sodipodi="http://sodipodi.sourceforge.net/DTD/sodipodi-0.dtd"
   xmlns="http://www.w3.org/2000/svg"
   xmlns:svg="http://www.w3.org/2000/svg">
  <sodipodi:namedview
     id="namedview1"
     pagecolor="#ffffff"
     bordercolor="#666666"
     borderopacity="1.0"
     inkscape:showpageshadow="2"
     inkscape:pageopacity="0.0"
     inkscape:pagecheckerboard="0"
     inkscape:deskcolor="#d1d1d1"
     inkscape:document-units="mm"
     inkscape:zoom="3.885397"
     inkscape:cx="102.43483"
     inkscape:cy="3.4745484"
     inkscape:window-width="1920"
     inkscape:window-height="1009"
     inkscape:window-x="1912"
     inkscape:window-y="-8"
     inkscape:window-maximized="1"
     inkscape:current-layer="layer1"
     showguides="false" />
  <defs
     id="defs1" />
  <g
     inkscape:label="Layer 1"
     inkscape:groupmode="layer"
     id="layer1"
     transform="translate(-0.02332193,-0.22761214)">
    <g
       id="text23"
       style="font-size:10.5833px;line-height:1.25;stroke-width:0.264583"
       aria-label="🛒ShopCMS">
      <path
         style="font-weight:bold;font-family:'Plus Jakarta Sans';-inkscape-font-specification:'Plus Jakarta Sans Bold';fill:#5d87ff"
         d="M 9.9968416,0.97175039 8.8341256,5.4985914 q 0.5374332,0.1550288 0.8888318,0.6459534 0.3565666,0.4857569 0.3565666,1.1162074 v 0.041341 q 0,0.5167627 -0.2325436,0.9405081 Q 9.6196049,8.661179 9.2320328,8.9143927 8.8444608,9.1676065 8.3742068,9.1676065 H 8.0331434 q 0.2325432,0 0.3927397,0.1601964 0.165364,0.165364 0.165364,0.3979072 0,0.2325433 -0.165364,0.3927399 -0.1601965,0.165364 -0.3927397,0.165364 -0.2325432,0 -0.3979072,-0.165364 -0.1601965,-0.1601966 -0.1601965,-0.3927399 0,-0.2325432 0.1601965,-0.3979072 0.165364,-0.1601964 0.3979072,-0.1601964 H 1.3255639 q 0.2325432,0 0.3979072,0.1601964 0.1653641,0.165364 0.1653641,0.3979072 0,0.2325433 -0.1653641,0.3927399 -0.165364,0.165364 -0.3979072,0.165364 -0.2273756,0 -0.39273966,-0.165364 -0.16536405,-0.1601966 -0.16536405,-0.3927399 0,-0.2325432 0.16536405,-0.3979072 Q 1.0981883,9.1676065 1.3255639,9.1676065 H 0.39539106 q -0.1550288,0 -0.26354897,-0.1136878 -0.10852016,-0.1136878 -0.10852016,-0.2738843 0,-0.1601964 0.10852016,-0.2583813 0.11368779,-0.098185 0.26354897,-0.098185 H 8.3587039 q 0.3979073,0 0.6872944,-0.3358957 Q 9.340553,7.7516767 9.340553,7.3020932 v -0.041341 q 0,-0.3617339 -0.2015374,-0.651121 Q 8.9426457,6.3150765 8.648091,6.2220592 L 8.2501838,7.762012 Q 8.2140104,7.9170408 8.0744844,7.9997228 7.9349585,8.0772372 7.7747621,8.0410638 7.6352362,8.0048904 7.5473865,7.8963703 7.4647045,7.7826825 7.4750397,7.6483242 L 1.9508467,7.2142435 Q 1.5529395,7.1832378 1.1653674,7.0075385 0.77779544,6.8318392 0.50907885,6.5114463 0.24552988,6.1910534 0.21969175,5.7207994 L 0.02332193,2.5582118 q 0,-0.511595 0.35139862,-0.8629937 Q 0.72611917,1.3438195 1.2170437,1.3438195 H 9.0873393 L 9.1906918,0.94591226 q -0.2273755,-0.0981849 -0.2273755,-0.346231 0,-0.1550288 0.1085201,-0.26354896 0.1085202,-0.10852016 0.263549,-0.10852016 h 0.7441386 q 0.155028,0 0.263549,0.10852016 0.10852,0.10852016 0.10852,0.26354896 0,0.15502881 -0.10852,0.26354897 -0.108521,0.10852016 -0.263549,0.10852016 z M 7.3303462,5.0696784 7.6972477,3.5814019 H 6.7309015 V 5.0696784 Z M 7.790265,3.2093328 7.9194556,2.6822349 Q 7.9762995,2.4600269 7.831606,2.27916 7.6869124,2.0931254 7.4543692,2.0931254 H 6.7309015 V 3.2093328 Z M 6.3536647,2.0931254 4.7258623,2.0879578 v 1.121375 H 6.3536647 Z M 4.3537932,2.0879578 H 2.6381411 v 1.121375 h 1.7156521 z m -2.0877212,0 H 1.2222113 q -0.1912021,0 -0.32556044,0.1291906 -0.12919067,0.1291907 -0.12919067,0.3152253 l 0.041341,0.6769591 H 2.266072 Z M 0.83463934,3.5814019 0.92765662,5.0696784 H 2.266072 V 3.5814019 Z M 0.94832712,5.4417476 0.96383,5.6742908 q 0.0206705,0.3565662 0.346231,0.5632713 0.3307281,0.206705 0.7027972,0.2377108 l 0.2532138,0.02067 V 5.4417476 Z M 2.6381411,6.5269492 4.3537932,6.6613075 V 5.4417476 H 2.6381411 Z m 2.0877212,0.165364 1.6329701,0.1240231 q -0.00517,-0.010335 -0.00517,-0.025838 V 5.4417476 H 4.7258623 Z m 2.0050392,0.093017 Q 6.9324389,6.6871456 6.9841152,6.4649377 L 7.2373289,5.4417476 H 6.7309015 Z M 4.7258623,3.5814019 V 5.0696784 H 6.3536647 V 3.5814019 Z m -2.0877212,0 V 5.0696784 H 4.3537932 V 3.5814019 Z"
         id="path1" />
      <path
         style="font-weight:bold;font-family:'Plus Jakarta Sans';-inkscape-font-specification:'Plus Jakarta Sans Bold'"
         d="m 16.080296,8.9277046 q -0.751415,0 -1.396996,-0.2751658 Q 14.048302,8.377373 13.582637,7.8905412 13.127555,7.3931261 12.915889,6.7369615 l 1.195913,-0.5185817 q 0.285749,0.6773312 0.825497,1.0689133 0.539749,0.3809988 1.21708,0.3809988 0.380999,0 0.656164,-0.1164163 0.285749,-0.1269996 0.433916,-0.3386656 0.158749,-0.211666 0.158749,-0.5079984 0,-0.3492489 -0.211666,-0.5714982 Q 16.990459,5.9008809 16.577711,5.7738813 L 15.064299,5.2870495 Q 14.143552,5.0013004 13.677887,4.4298022 13.212222,3.858304 13.212222,3.0857232 q 0,-0.6773312 0.328082,-1.1959129 0.338665,-0.5185817 0.93133,-0.8043308 0.603248,-0.29633237 1.375829,-0.29633237 0.709081,0 1.301746,0.25399917 0.592665,0.2434159 1.015997,0.6879145 0.433915,0.4339153 0.645581,1.0265801 l -1.18533,0.5291649 Q 17.392625,2.6941411 16.92696,2.3766421 16.461295,2.0485598 15.847463,2.0485598 q -0.359832,0 -0.634998,0.1269996 -0.275166,0.1164163 -0.433915,0.3386656 -0.148166,0.211666 -0.148166,0.5079984 0,0.3280822 0.211666,0.5820814 0.211666,0.2434159 0.645581,0.3809988 l 1.449912,0.4550819 q 0.941914,0.3069157 1.407579,0.846664 0.476248,0.5397483 0.476248,1.3334957 0,0.6773312 -0.349249,1.1959129 -0.349248,0.5185817 -0.96308,0.8149141 -0.613831,0.2963324 -1.428745,0.2963324 z M 19.996109,8.800705 V 0.78914713 h 1.386412 V 4.175803 L 21.192022,3.9747203 q 0.201083,-0.5185817 0.656164,-0.7831642 0.465666,-0.2751657 1.079497,-0.2751657 0.634998,0 1.12183,0.2751657 0.497415,0.2751658 0.772581,0.7725809 0.275165,0.4868318 0.275165,1.1324131 V 8.800705 H 23.710847 V 5.4246324 q 0,-0.3809988 -0.148166,-0.6561646 -0.148166,-0.2751658 -0.412749,-0.423332 -0.253999,-0.1587495 -0.603248,-0.1587495 -0.338665,0 -0.603248,0.1587495 -0.264582,0.1481662 -0.412749,0.423332 -0.148166,0.2751658 -0.148166,0.6561646 V 8.800705 Z m 9.09106,0.1269996 q -0.846664,0 -1.545162,-0.3915821 Q 26.854092,8.1445404 26.441344,7.4672092 26.039178,6.789878 26.039178,5.9220475 q 0,-0.8678306 0.402166,-1.5451618 0.412748,-0.6773312 1.100663,-1.0689133 0.687914,-0.391582 1.545162,-0.391582 0.846664,0 1.534578,0.391582 0.687914,0.3915821 1.09008,1.0689133 0.412749,0.6667479 0.412749,1.5451618 0,0.8678305 -0.412749,1.5451617 -0.412749,0.6773312 -1.100663,1.0689133 -0.687915,0.3915821 -1.523995,0.3915821 z m 0,-1.269996 q 0.465665,0 0.814914,-0.2222493 0.359832,-0.2222493 0.560914,-0.6138314 0.211666,-0.4021654 0.211666,-0.8995804 0,-0.5079984 -0.211666,-0.8889972 -0.201082,-0.3915821 -0.560914,-0.6138314 -0.349249,-0.2328326 -0.814914,-0.2328326 -0.476249,0 -0.836081,0.2328326 -0.359832,0.2222493 -0.571498,0.6138314 -0.201083,0.3809988 -0.201083,0.8889972 0,0.497415 0.201083,0.8995804 0.211666,0.3915821 0.571498,0.6138314 0.359832,0.2222493 0.836081,0.2222493 z m 4.085156,3.2596564 V 3.04339 h 1.301746 v 1.1429963 l -0.127,-0.2857491 q 0.296333,-0.4656652 0.804331,-0.7196644 0.507999,-0.2645824 1.174746,-0.2645824 0.814915,0 1.471079,0.4021653 0.656165,0.4021654 1.037163,1.0794966 0.391583,0.6773312 0.391583,1.5239952 0,0.8360806 -0.380999,1.5239951 -0.380999,0.6879145 -1.037164,1.0900799 -0.656164,0.3915821 -1.492245,0.3915821 -0.624415,0 -1.15358,-0.2434159 -0.518581,-0.2539992 -0.825497,-0.7196644 l 0.222249,-0.2751658 v 3.2279065 z m 2.984491,-3.2596564 q 0.476248,0 0.846664,-0.2222493 0.370415,-0.2222493 0.571498,-0.6138314 0.211666,-0.3915821 0.211666,-0.8995804 0,-0.5079984 -0.211666,-0.8889972 Q 37.373895,4.6414682 37.00348,4.4192189 36.633064,4.1863863 36.156816,4.1863863 q -0.455082,0 -0.825498,0.2222493 -0.359832,0.2222493 -0.571498,0.6244147 -0.201083,0.3915821 -0.201083,0.8889972 0,0.5079983 0.201083,0.8995804 0.211666,0.3915821 0.571498,0.6138314 0.370416,0.2222493 0.825498,0.2222493 z m 7.948068,1.269996 q -0.846664,0 -1.566328,-0.3069157 Q 41.829475,8.3138732 41.289727,7.7635416 40.760562,7.21321 40.464229,6.472379 40.167897,5.7315481 40.167897,4.8531342 q 0,-0.8784139 0.285749,-1.6192449 0.296332,-0.7514142 0.825497,-1.2911625 0.539749,-0.5503316 1.259413,-0.846664 0.719664,-0.30691567 1.566328,-0.30691567 0.846664,0 1.513412,0.28574907 0.677331,0.2857491 1.142997,0.7619976 0.465665,0.4656652 0.666747,1.0265801 l -1.291162,0.603248 Q 45.914629,2.8740572 45.385464,2.4930584 44.856299,2.1014763 44.104884,2.1014763 q -0.740831,0 -1.312329,0.3492489 -0.560915,0.3492489 -0.878414,0.9630802 -0.306915,0.6138314 -0.306915,1.4393288 0,0.8254974 0.306915,1.449912 0.317499,0.6138314 0.878414,0.9630803 0.571498,0.3492489 1.312329,0.3492489 0.751415,0 1.28058,-0.3809988 0.529165,-0.3915821 0.751414,-0.9842469 L 47.42804,6.8533778 Q 47.226958,7.4142927 46.761293,7.8905412 46.295627,8.3562064 45.618296,8.6419555 44.951548,8.9277046 44.104884,8.9277046 Z M 48.592204,8.800705 V 0.91614673 h 1.375829 L 52.920774,4.9272173 H 52.264609 L 55.15385,0.91614673 h 1.375829 V 8.800705 H 55.079767 V 2.5565582 L 55.640682,2.6941411 52.645608,6.684045 H 52.476275 L 49.555285,2.6941411 50.031533,2.5565582 V 8.800705 Z m 12.266044,0.1269996 q -0.751414,0 -1.396996,-0.2751658 Q 58.826254,8.377373 58.360589,7.8905412 57.905507,7.3931261 57.693841,6.7369615 l 1.195913,-0.5185817 q 0.285749,0.6773312 0.825498,1.0689133 0.539748,0.3809988 1.217079,0.3809988 0.380999,0 0.656165,-0.1164163 Q 61.874245,7.424876 62.022411,7.21321 62.18116,7.001544 62.18116,6.7052116 q 0,-0.3492489 -0.211666,-0.5714982 Q 61.768412,5.9008809 61.355663,5.7738813 L 59.842251,5.2870495 Q 58.921504,5.0013004 58.455839,4.4298022 57.990174,3.858304 57.990174,3.0857232 q 0,-0.6773312 0.328082,-1.1959129 0.338666,-0.5185817 0.93133,-0.8043308 0.603248,-0.29633237 1.375829,-0.29633237 0.709081,0 1.301746,0.25399917 0.592665,0.2434159 1.015997,0.6879145 0.433915,0.4339153 0.645581,1.0265801 L 62.40341,3.2868058 Q 62.170577,2.6941411 61.704912,2.3766421 61.239247,2.0485598 60.625415,2.0485598 q -0.359832,0 -0.634998,0.1269996 -0.275165,0.1164163 -0.433915,0.3386656 -0.148166,0.211666 -0.148166,0.5079984 0,0.3280822 0.211666,0.5820814 0.211666,0.2434159 0.645581,0.3809988 l 1.449912,0.4550819 q 0.941914,0.3069157 1.407579,0.846664 0.476249,0.5397483 0.476249,1.3334957 0,0.6773312 -0.349249,1.1959129 -0.349249,0.5185817 -0.963081,0.8149141 -0.613831,0.2963324 -1.428745,0.2963324 z"
         id="path2" />
    </g>
  </g>
</svg>
